<?xml version="1.0" encoding="UTF-8" standalone="no"?>
<!DOCTYPE svg PUBLIC "-//W3C//DTD SVG 1.1//EN" "http://www.w3.org/Graphics/SVG/1.1/DTD/svg11.dtd">
<svg width="100%" height="100%" viewBox="0 0 512 512" version="1.1" xmlns="http://www.w3.org/2000/svg" xmlns:xlink="http://www.w3.org/1999/xlink" xml:space="preserve" xmlns:serif="http://www.serif.com/" style="fill-rule:evenodd;clip-rule:evenodd;stroke-linejoin:round;stroke-miterlimit:2;">
    <path d="M192,8L32.8,8C19.113,8 8,19.113 8,32.8L8,479.2C8,492.887 19.113,504 32.8,504L192,504L192,8Z" style="fill:#366868;"/>
    <path d="M479.2,8L192,8L192,504L479.2,504C492.887,504 504,492.887 504,479.2L504,32.8C504,19.113 492.887,8 479.2,8Z" style="fill:#5d9fa0;"/>
    <g transform="matrix(0.9375,0,0,1,-12,16)">
        <path d="M320,424C320,419.585 316.176,416 311.467,416L72.533,416C67.824,416 64,419.585 64,424L64,440C64,444.415 67.824,448 72.533,448L311.467,448C316.176,448 320,444.415 320,440L320,424Z" style="fill:#7e7e7e;"/>
    </g>
    <g transform="matrix(1.0625,0,0,1,-20,-240)">
        <path d="M320,424C320,419.585 316.626,416 312.471,416L71.529,416C67.374,416 64,419.585 64,424L64,440C64,444.415 67.374,448 71.529,448L312.471,448C316.626,448 320,444.415 320,440L320,424Z" style="fill:#7e7e7e;"/>
    </g>
    <g transform="matrix(1.3125,0,0,1,-36,-48)">
        <path d="M320,424C320,419.585 317.269,416 313.905,416L70.095,416C66.731,416 64,419.585 64,424L64,440C64,444.415 66.731,448 70.095,448L313.905,448C317.269,448 320,444.415 320,440L320,424Z" style="fill:#7e7e7e;"/>
    </g>
    <g transform="matrix(1.3125,0,0,1,-36,-304)">
        <path d="M320,424C320,419.585 317.269,416 313.905,416L70.095,416C66.731,416 64,419.585 64,424L64,440C64,444.415 66.731,448 70.095,448L313.905,448C317.269,448 320,444.415 320,440L320,424Z" style="fill:#7e7e7e;"/>
    </g>
    <g transform="matrix(0.4375,0,0,1,20,-368)">
        <path d="M320,424C320,419.585 311.806,416 301.714,416L82.286,416C72.194,416 64,419.585 64,424L64,440C64,444.415 72.194,448 82.286,448L301.714,448C311.806,448 320,444.415 320,440L320,424Z" style="fill:#7e7e7e;"/>
    </g>
    <g transform="matrix(0.6875,0,0,1,4,-112)">
        <path d="M320,424C320,419.585 314.786,416 308.364,416L75.636,416C69.214,416 64,419.585 64,424L64,440C64,444.415 69.214,448 75.636,448L308.364,448C314.786,448 320,444.415 320,440L320,424Z" style="fill:#7e7e7e;"/>
    </g>
    <g transform="matrix(0.8125,0,0,1,-4,-176)">
        <path d="M320,424C320,419.585 315.588,416 310.154,416L73.846,416C68.412,416 64,419.585 64,424L64,440C64,444.415 68.412,448 73.846,448L310.154,448C315.588,448 320,444.415 320,440L320,424Z" style="fill:#7e7e7e;"/>
    </g>
    <g transform="matrix(0.5625,0,0,1,252,-176)">
        <path d="M320,424C320,419.585 313.627,416 305.778,416L78.222,416C70.373,416 64,419.585 64,424L64,440C64,444.415 70.373,448 78.222,448L305.778,448C313.627,448 320,444.415 320,440L320,424Z" style="fill:#7e7e7e;"/>
    </g>
    <g transform="matrix(1.2,0,0,1,-20.8,-8)">
        <path d="M144,68C144,65.792 142.506,64 140.667,64L67.333,64C65.494,64 64,65.792 64,68L64,76C64,78.208 65.494,80 67.333,80L140.667,80C142.506,80 144,78.208 144,76L144,68Z" style="fill:#2e2e2e;"/>
    </g>
    <g transform="matrix(1.9,0,0,1,-65.6,56)">
        <path d="M144,68C144,65.792 143.057,64 141.895,64L66.105,64C64.943,64 64,65.792 64,68L64,76C64,78.208 64.943,80 66.105,80L141.895,80C143.057,80 144,78.208 144,76L144,68Z" style="fill:#2e2e2e;"/>
    </g>
    <g transform="matrix(3.2,0,0,1,-148.8,120)">
        <path d="M144,68C144,65.792 143.44,64 142.75,64L65.25,64C64.56,64 64,65.792 64,68L64,76C64,78.208 64.56,80 65.25,80L142.75,80C143.44,80 144,78.208 144,76L144,68Z" style="fill:#2e2e2e;"/>
    </g>
    <g transform="matrix(2.4,0,0,1,-97.6,184)">
        <path d="M144,68C144,65.792 143.253,64 142.333,64L65.667,64C64.747,64 64,65.792 64,68L64,76C64,78.208 64.747,80 65.667,80L142.333,80C143.253,80 144,78.208 144,76L144,68Z" style="fill:#2e2e2e;"/>
    </g>
    <g transform="matrix(1.6,0,0,1,193.6,184)">
        <path d="M144,68C144,65.792 142.88,64 141.5,64L66.5,64C65.12,64 64,65.792 64,68L64,76C64,78.208 65.12,80 66.5,80L141.5,80C142.88,80 144,78.208 144,76L144,68Z" style="fill:#2e2e2e;"/>
    </g>
    <g transform="matrix(1.1,0,0,1,-14.4,248)">
        <path d="M144,68C144,65.792 142.371,64 140.364,64L67.636,64C65.629,64 64,65.792 64,68L64,76C64,78.208 65.629,80 67.636,80L140.364,80C142.371,80 144,78.208 144,76L144,68Z" style="fill:#2e2e2e;"/>
    </g>
    <g transform="matrix(0.5,0,0,1,144,248)">
        <path d="M144,68C144,65.792 140.415,64 136,64L72,64C67.585,64 64,65.792 64,68L64,76C64,78.208 67.585,80 72,80L136,80C140.415,80 144,78.208 144,76L144,68Z" style="fill:#2e2e2e;"/>
    </g>
    <g transform="matrix(1.9,0,0,1,-65.6,312)">
        <path d="M144,68C144,65.792 143.057,64 141.895,64L66.105,64C64.943,64 64,65.792 64,68L64,76C64,78.208 64.943,80 66.105,80L141.895,80C143.057,80 144,78.208 144,76L144,68Z" style="fill:#2e2e2e;"/>
    </g>
    <g transform="matrix(1.7,0,0,1,131.2,312)">
        <path d="M144,68C144,65.792 142.946,64 141.647,64L66.353,64C65.054,64 64,65.792 64,68L64,76C64,78.208 65.054,80 66.353,80L141.647,80C142.946,80 144,78.208 144,76L144,68Z" style="fill:#2e2e2e;"/>
    </g>
    <g transform="matrix(2.8,0,0,1,-123.2,376)">
        <path d="M144,68C144,65.792 143.36,64 142.571,64L65.429,64C64.64,64 64,65.792 64,68L64,76C64,78.208 64.64,80 65.429,80L142.571,80C143.36,80 144,78.208 144,76L144,68Z" style="fill:#2e2e2e;"/>
    </g>
    <g transform="matrix(1.7,0,0,1,131.2,56)">
        <path d="M144,68C144,65.792 142.946,64 141.647,64L66.353,64C65.054,64 64,65.792 64,68L64,76C64,78.208 65.054,80 66.353,80L141.647,80C142.946,80 144,78.208 144,76L144,68Z" style="fill:#2e2e2e;"/>
    </g>
</svg>
